<svg fill="black" width="184" height="31" viewBox="0 0 184 31" xmlns="http://www.w3.org/2000/svg"><path d="M61.08 20.0802C61.08 20.3255 61.0267 20.5655 60.92 20.8002C60.8133 21.0242 60.6693 21.2269 60.488 21.4082C60.3173 21.5789 60.1147 21.7229 59.88 21.8402C59.656 21.9469 59.416 22.0002 59.16 22.0002H47V9.2002H59.16C59.4053 9.2002 59.64 9.25353 59.864 9.3602C60.0987 9.46686 60.3067 9.61086 60.488 9.7922C60.6693 9.97353 60.8133 10.1815 60.92 10.4162C61.0267 10.6402 61.08 10.8749 61.08 11.1202V20.0802ZM57.24 18.1602V13.0402H50.84V18.1602H57.24Z"></path><path d="M66.215 22.0002H62.375V9.2002H66.215V22.0002Z"></path><path d="M82.8756 19.8722C82.8756 20.1495 82.8276 20.4162 82.7316 20.6722C82.6356 20.9282 82.5023 21.1575 82.3316 21.3602C82.161 21.5522 81.9583 21.7069 81.7236 21.8242C81.489 21.9415 81.233 22.0002 80.9556 22.0002H67.5156V18.1602H79.0356V16.8802H67.5156V11.3282C67.5156 11.0615 67.5636 10.8002 67.6596 10.5442C67.7556 10.2882 67.889 10.0642 68.0596 9.8722C68.2303 9.66953 68.433 9.50953 68.6676 9.39219C68.9023 9.2642 69.1583 9.2002 69.4356 9.2002H82.8756V13.0402H71.3556V14.3202H82.8756V19.8722Z"></path><path d="M98.2363 15.3922C98.2363 15.6695 98.1883 15.9362 98.0923 16.1922C97.9963 16.4482 97.8629 16.6775 97.6922 16.8802C97.5216 17.0722 97.3189 17.2269 97.0843 17.3442C96.8496 17.4615 96.5936 17.5202 96.3162 17.5202H87.9963V22.0002H84.1562V9.2002H96.3162C96.5616 9.2002 96.7962 9.25353 97.0202 9.3602C97.2549 9.46686 97.4629 9.61086 97.6442 9.7922C97.8256 9.97353 97.9696 10.1815 98.0763 10.4162C98.1829 10.6402 98.2363 10.8749 98.2363 11.1202V15.3922ZM94.3963 13.6802V13.0402H87.9963V13.6802H94.3963Z"></path><path d="M114.204 22.0002H100.764C100.486 22.0002 100.23 21.9415 99.9958 21.8242C99.7611 21.7069 99.5584 21.5522 99.3877 21.3602C99.2171 21.1575 99.0838 20.9282 98.9878 20.6722C98.8918 20.4162 98.8438 20.1495 98.8438 19.8722V11.3282C98.8438 11.0615 98.8918 10.8002 98.9878 10.5442C99.0838 10.2882 99.2171 10.0642 99.3877 9.8722C99.5584 9.66953 99.7611 9.50953 99.9958 9.39219C100.23 9.2642 100.486 9.2002 100.764 9.2002H114.204V13.0402H102.684V13.6802H114.204V17.5202H102.684V18.1602H114.204V22.0002Z"></path><path d="M124.507 22.0002L121.819 17.5202H120.667V13.6802H125.787V13.0402H119.387V22.0002H115.547V9.2002H127.707C127.974 9.2002 128.24 9.2322 128.507 9.2962C128.784 9.36019 129.014 9.49353 129.195 9.69619C129.408 9.93086 129.531 10.1922 129.563 10.4802C129.606 10.7682 129.627 11.0509 129.627 11.3282V15.3922V15.5682C129.627 15.8135 129.579 16.0535 129.483 16.2882C129.398 16.5229 129.275 16.7309 129.115 16.9122C128.955 17.0935 128.763 17.2429 128.539 17.3602C128.326 17.4669 128.091 17.5202 127.835 17.5202H127.707H126.939L129.627 22.0002H124.507Z"></path><path d="M146.188 19.8722C146.188 20.1495 146.14 20.4162 146.044 20.6722C145.948 20.9282 145.815 21.1575 145.644 21.3602C145.473 21.5522 145.271 21.7069 145.036 21.8242C144.801 21.9415 144.545 22.0002 144.268 22.0002H130.828V18.1602H142.348V16.8802H130.828V11.3282C130.828 11.0615 130.876 10.8002 130.972 10.5442C131.068 10.2882 131.201 10.0642 131.372 9.8722C131.543 9.66953 131.745 9.50953 131.98 9.39219C132.215 9.2642 132.471 9.2002 132.748 9.2002H146.188V13.0402H134.668V14.3202H146.188V19.8722Z"></path><path d="M151.309 22.0002H147.469V9.2002H151.309V22.0002Z"></path><path d="M167.969 20.0802C167.969 20.3469 167.911 20.5975 167.793 20.8322C167.687 21.0669 167.532 21.2695 167.329 21.4402C167.137 21.6109 166.913 21.7495 166.657 21.8562C166.401 21.9522 166.129 22.0002 165.841 22.0002H154.737C154.449 22.0002 154.172 21.9522 153.905 21.8562C153.649 21.7495 153.425 21.6109 153.233 21.4402C153.041 21.2695 152.887 21.0669 152.769 20.8322C152.663 20.5975 152.609 20.3469 152.609 20.0802V11.1202C152.609 10.8535 152.663 10.6082 152.769 10.3842C152.887 10.1495 153.041 9.94686 153.233 9.77619C153.425 9.59486 153.649 9.4562 153.905 9.3602C154.172 9.25353 154.449 9.2002 154.737 9.2002H165.841C166.129 9.2002 166.401 9.25353 166.657 9.3602C166.913 9.4562 167.137 9.59486 167.329 9.77619C167.532 9.94686 167.687 10.1495 167.793 10.3842C167.911 10.6082 167.969 10.8535 167.969 11.1202V20.0802ZM164.129 18.1602V13.0402H156.449V18.1602H164.129Z"></path><path d="M183.33 22.0002H178.21L173.09 14.6882V18.1602H174.37L176.93 22.0002H169.25V9.2002H174.37L179.49 16.5122V9.2002H183.33V22.0002Z"></path><path fill-rule="evenodd" clip-rule="evenodd" d="M17.5199 2.76981C14.5358 2.29633 11.4802 2.88619 8.88684 4.43637C6.29343 5.98654 4.32701 8.39851 3.33101 11.251C2.33501 14.1035 2.37273 17.2153 3.43758 20.0428C4.50244 22.8703 6.52675 25.2339 9.15697 26.7208C11.7872 28.2076 14.8562 28.7232 17.8279 28.1776C20.7996 27.6319 23.4851 26.0596 25.4156 23.7353C27.346 21.411 28.3985 18.4825 28.3894 15.4611L30.9999 15.4532C31.0109 19.0865 29.7452 22.6082 27.4238 25.4032C25.1024 28.1983 21.8729 30.089 18.2993 30.7452C14.7258 31.4013 11.0352 30.7813 7.87231 28.9933C4.70938 27.2053 2.27508 24.363 0.994561 20.9628C-0.285962 17.5627 -0.331322 13.8207 0.866402 10.3905C2.06413 6.96022 4.42881 4.05976 7.54747 2.19563C10.6661 0.331492 14.3405 -0.377834 17.929 0.191532C21.5174 0.760897 24.7918 2.57277 27.1802 5.3107L25.213 7.0268C23.2268 4.74999 20.5039 3.24328 17.5199 2.76981Z"></path><path fill-rule="evenodd" clip-rule="evenodd" d="M16.1367 12.2997C15.5038 12.1738 14.8476 12.2384 14.2514 12.4854C13.6551 12.7323 13.1455 13.1506 12.7869 13.6872C12.4284 14.2238 12.237 14.8547 12.237 15.5001H10.7686C10.7686 14.5643 11.0461 13.6495 11.566 12.8714C12.0859 12.0933 12.8249 11.4868 13.6894 11.1287C14.554 10.7706 15.5054 10.6769 16.4232 10.8595C17.3411 11.042 18.1841 11.4927 18.8459 12.1544L17.8075 13.1927C17.3512 12.7364 16.7697 12.4256 16.1367 12.2997Z"></path><path fill-rule="evenodd" clip-rule="evenodd" d="M16.0576 8.34268C14.6764 8.23508 13.2937 8.52938 12.0761 9.19009C10.8584 9.8508 9.858 10.8497 9.1954 12.0663C8.53281 13.2829 8.23636 14.6652 8.34183 16.0465L4.60009 16.3322C4.43949 14.2288 4.89089 12.1239 5.89984 10.2714C6.90879 8.41888 8.4322 6.89784 10.2863 5.89176C12.1404 4.88568 14.246 4.43754 16.3491 4.60139C18.4522 4.76525 20.4629 5.53411 22.1388 6.81522L19.8598 9.79654C18.7592 8.95521 17.4387 8.45029 16.0576 8.34268Z"></path><path fill-rule="evenodd" clip-rule="evenodd" d="M21.7347 19.0594C22.3546 17.9737 22.6802 16.745 22.6793 15.4949L26.4319 15.4922C26.4333 17.3958 25.9375 19.2669 24.9936 20.92C24.0498 22.5732 22.6905 23.9513 21.0505 24.9178C19.4104 25.8843 17.5464 26.4058 15.6429 26.4306C13.7394 26.4555 11.8625 25.9828 10.1978 25.0594L12.018 21.7778C13.1113 22.3842 14.3439 22.6946 15.594 22.6783C16.844 22.662 18.0682 22.3195 19.1452 21.6848C20.2223 21.0501 21.1149 20.1451 21.7347 19.0594Z"></path><path fill-rule="evenodd" clip-rule="evenodd" d="M18.3116 17.1562C18.5956 16.674 18.7509 16.1269 18.7625 15.5674L20.2306 15.5977C20.2138 16.409 19.9886 17.2024 19.5768 17.9015C19.1649 18.6007 18.5801 19.1822 17.8787 19.5901C17.1772 19.9981 16.3826 20.2187 15.5713 20.231C14.7599 20.2432 13.959 20.0465 13.2456 19.6599L13.9452 18.3689C14.4373 18.6355 14.9896 18.7711 15.5492 18.7627C16.1087 18.7543 16.6567 18.6021 17.1405 18.3207C17.6242 18.0394 18.0275 17.6384 18.3116 17.1562Z"></path><path fill-rule="evenodd" clip-rule="evenodd" d="M12.2305 0.282071C13.0936 0.115109 13.9673 0.0223046 14.8419 0.0035589C15.1728 -0.00353402 15.5039 -2.41495e-05 15.8346 0.0140831C16.7078 0.051328 17.5783 0.162439 18.4369 0.347317C18.4378 0.34751 18.4387 0.347703 18.4396 0.347895L16.0753 11.318C16.075 11.3179 16.0746 11.3179 16.0743 11.3178C15.5113 11.1966 14.9296 11.1903 14.3641 11.2994C14.3632 11.2995 14.3624 11.2997 14.3616 11.2998L12.2305 0.282071Z"></path><path fill-rule="evenodd" clip-rule="evenodd" d="M2.24561 7.46419C2.55132 6.95992 2.88555 6.47351 3.24669 6.00732L11.9386 12.7407C11.8337 12.8762 11.7365 13.0175 11.6477 13.1641L2.24561 7.46419Z"></path><path fill-rule="evenodd" clip-rule="evenodd" d="M28.6094 23.7698C28.6084 23.7714 28.6074 23.773 28.6064 23.7746C28.5934 23.7952 28.5803 23.8159 28.5671 23.8364C28.2587 24.3199 27.9237 24.7858 27.5637 25.2321C27.5472 25.2526 27.5306 25.273 27.514 25.2934L18.9185 18.2866C18.919 18.2859 18.9196 18.2851 18.9202 18.2844C19.0318 18.1473 19.1351 18.0036 19.2295 17.8541C19.2297 17.8538 19.2299 17.8534 19.2302 17.853L28.6094 23.7698Z"></path><path fill-rule="evenodd" clip-rule="evenodd" d="M18.6886 30.6683C17.8218 30.8505 16.9431 30.9576 16.0624 30.9896C15.7381 31.0014 15.4136 31.003 15.0892 30.9944C14.2082 30.971 13.3285 30.8725 12.46 30.6988L14.5964 20.0174C15.207 20.1395 15.8359 20.1366 16.4454 20.0088C16.4461 20.0086 16.4469 20.0085 16.4477 20.0083L18.6886 30.6683Z"></path></svg>